<svg xmlns="http://www.w3.org/2000/svg" height="800" width="1200" viewBox="-15 -7.233725 130 43.40235"><path d="M23.4652.6883h4.1723l5.2476 12.38h-3.9783l-1.0153-2.6434h-4.8373L21.98 13.0683h-3.686zm2.0846 2.5523h-.037l-1.619 4.843h3.139zM33.7834.6883h4.6236l4.1913 8.4067h.0385L42.5793.6883h3.316v12.38h-4.5077l-4.3473-8.4607h-.0392l.1182 8.4607h-3.3359zm25.3358 12.0959c-1.0336.23-2.184.4963-4.039.4963-3.628 0-7.8196-1.6654-7.8196-6.3489 0-4.3102 3.3136-6.4583 7.8002-6.4583 1.3843 0 2.7316.2865 4.0394.6406l-.2925 2.6783c-1.1716-.5866-2.3012-.8692-3.551-.8692-2.5743 0-4.2517 1.7021-4.2517 4.0086 0 2.4292 1.892 3.9017 4.5437 3.9017 1.1903 0 2.4003-.285 3.3945-.6382l.176 2.589M60.486.6883h3.6266v4.7343h4.2926V.6883h3.6294v12.38h-3.6294v-5.304h-4.2926v5.304H60.486zm19.7752-.215c4.4874 0 6.8288 2.4324 6.8288 6.4057 0 3.9353-2.381 6.4015-6.8288 6.4015-4.4478 0-6.828-2.4662-6.828-6.4015 0-3.9733 2.341-6.4057 6.828-6.4057m0 10.36c2.2056 0 3.0823-1.9156 3.0823-3.9543 0-2.147-.8767-3.956-3.0823-3.956-2.2055 0-3.0811 1.809-3.0811 3.956 0 2.0387.8756 3.9543 3.0811 3.9543M88.4885.6883h6.478c2.4187 0 4.39.9948 4.39 3.1203 0 1.6496-.8587 2.7513-2.6155 3.1231v.035c1.1716.284 1.2492 1.2223 1.9325 2.7322L100 13.0683h-3.7843l-.7807-2.2349c-.7422-2.128-1.2107-2.661-2.5573-2.661h-.7598v4.8959h-3.6294zm3.6294 5.1428h.9567c1.1702 0 2.6532-.034 2.6532-1.4358 0-1.1547-1.2682-1.3656-2.6532-1.3656h-.9567V5.831M0 13.7548h14.03V0H0z" fill="#ed1d24"/><path d="M7.0132 2.4525c-.3433 0-.6241.2797-.6241.6248 0 .3474.2808.6258.624.6258a.6256.6256 0 00.6273-.6258c0-.345-.2812-.6248-.6272-.6248m3.9856 7.632c-.3369.4205-1.4926 1.6478-3.9856 2.1576-2.4917-.5098-3.6485-1.7371-3.9808-2.1576l-.695.401.156-2.4104 2.1653 1.0696-.6787.3923c.253.2716.9567.8921 2.1604.9761l.2766-4.5766H4.501V4.9293h1.9773l.0233-.3813c-.6106-.2149-1.0491-.787-1.0491-1.4707 0-.8626.6988-1.5618 1.5606-1.5618.864 0 1.565.6992 1.565 1.5618 0 .6836-.442 1.2558-1.0499 1.4707l.0236.3813H9.527v1.0072H7.61l.2798 4.5766c1.204-.0811 1.9057-.7045 2.1565-.9761l-.6752-.3923 2.1657-1.0696.1542 2.4105-.6922-.4011" fill="#fff" fill-rule="evenodd"/><path d="M84.4773 26.8095c-.4618.4868-.985.7761-1.6425.9084-.4424.0878-.829.1083-1.2802.061-.5973-.061-1.0887-.2544-1.5706-.611-.392-.295-.6727-.61-.9208-1.0372-.189-.3284-.2988-.6325-.3601-1.01-.0858-.519-.0642-.9761.0744-1.4845.313-1.1528 1.1797-1.9752 2.3516-2.2186.6678-.1376 1.2647-.1242 1.9248.0434.471.1245.8477.3288 1.203.6625.225.2085.3852.4163.526.6883.1675.3203.236.6325.2158.9934h-2.0902c-.0455-.2783-.1785-.5041-.4043-.676-.2913-.2229-.6678-.2405-.9814-.0458-.2145.1337-.3542.3122-.4283.5528-.181.5718-.189 1.1007-.0275 1.6782.0674.243.1838.4339.3666.6043.206.201.4688.2836.7535.2402.1757-.0268.3203-.104.4413-.2378.1246-.1365.1962-.2854.228-.4692.0236-.1323.0338-.2406.043-.3718h2.2038c.044.6653-.1676 1.2481-.6259 1.7293m-8.4226-6.1476h2.2856V19.049h-2.2856zm0 6.9438h2.2856v-6.1108h-2.2856zm-4.7321-5.4644c.2992-.2635.587-.4515.9465-.6177.5909-.2734 1.1815-.3164 1.807-.134.6699.1947 1.1546.6678 1.3627 1.3327.1027.3179.146.6047.146.9384v3.9452h-2.4242v-3.5476c0-.1189-.016-.219-.0512-.3327-.0624-.2039-.1968-.3527-.392-.4377-.4307-.1814-.9214-.019-1.1567.3838-.0995.1675-.1467.3326-.1467.5284v3.4058h-2.3478v-6.1109h2.2049l.0515.6463m-27.0304 0c.3023-.2635.587-.4515.949-.6177.5895-.2734 1.1818-.3164 1.8065-.134.6693.1947 1.1526.6678 1.3625 1.3327.1023.3179.146.6047.146.9384v3.9452h-2.4278v-3.5476a1.064 1.064 0 00-.0497-.3327c-.0614-.2039-.1951-.3527-.3955-.4377-.429-.1814-.9165-.019-1.1543.3838-.098.1675-.1411.3326-.1411.5284v3.4058h-2.352v-6.1109h2.2038l.0526.6463m14.4026 3.2162c.1778.0296.321.0649.49.1245.1414.0445.2385.1514.2677.296.0332.157-.0102.3055-.1224.422-.116.1146-.2455.1809-.4057.208-.2162.0326-.406.0153-.6134-.0595a.7961.7961 0 01-.2583-.1457c-.1065-.0907-.1767-.1937-.2138-.3246a.9297.9297 0 01-.0472-.3245h-2.2384v.1298c0 .2095.0325.3866.1083.5867.1115.2945.2656.526.4995.7433.3034.2815.616.46 1.0167.5722.8262.2349 1.571.2811 2.4226.1527.399-.0624.7267-.169 1.0862-.3556a2.1616 2.1616 0 00.4212-.2812c.6064-.5055.8315-1.2816.5888-2.0334-.0925-.284-.2357-.5027-.4636-.695-.309-.2677-.6177-.4377-1.011-.5527-.0847-.0243-.1577-.0473-.2463-.0677-.4787-.1366-.8897-.223-1.3832-.2946a6.7381 6.7381 0 01-.3708-.0716c-.061-.0148-.1097-.034-.1676-.0568a.27.27 0 01-.1347-.3609c.0035-.0109.006-.0148.0102-.0233.0716-.1309.1824-.2162.327-.2596.2537-.0741.4922-.066.7409.018.2399.0808.3915.3026.3813.5538h2.1573c-.0035-.265-.0403-.4879-.1334-.7352-.0914-.2526-.2307-.4434-.4389-.611-.1845-.146-.3594-.2448-.5764-.3288-.213-.0825-.4007-.1365-.6269-.1742-.5337-.0921-.9955-.119-1.535-.0893-.3097.0176-.5672.0596-.8748.1312-.404.0945-.732.2515-1.0633.5098-.2783.2187-.4621.477-.5771.8096-.054.1527-.079.2878-.0893.449-.0102.2675.031.496.127.7462.1792.4448.4957.7613.9409.9408.2286.0907.4254.149.6618.1962.4734.0974.871.1743 1.344.2554m-26.752-.3879h-1.567v-2.0038h1.0188c.1947 0 .357-.005.551-.0162.2682-.0148.4918-.1351.6502-.3514.0857-.1146.1337-.2286.1535-.3718.0166-.1189.0173-.2215.008-.3408-.0444-.4445-.4137-.7786-.8632-.7786h-1.5183v6.499H27.777v-8.5567h4.246c.1683 0 .3101.004.4791.0123 1.1257.062 2.0553.6879 2.5305 1.7088.2487.53.3327 1.0425.2678 1.625-.1348 1.229-.9931 2.1847-2.1993 2.4496-.4021.0878-.7482.1246-1.1585.1246m34.0864-3.5936c-.2452-.0392-.4508-.0568-.6942-.0568-.2452 0-.4495.0176-.6922.0568-.7017.1097-1.2707.3895-1.783.8827-.5496.526-.8459 1.1507-.9168 1.9092-.0413.4639-.0035.865.1189 1.314.1933.6908.5531 1.2225 1.1222 1.6588.3732.2865.745.4587 1.2054.5599.3263.0702.6107.1002.9455.1002.3344 0 .6187-.03.945-.1002.4611-.1012.8323-.2734 1.208-.5599l-1.3141-1.433c-.2075.465-.7525.6721-1.2175.4636-.2106-.096-.3662-.2498-.4603-.4635-.0904-.1958-.144-.3757-.173-.5867-.0655-.43-.0556-.8047.0255-1.2316.0427-.2204.1185-.4004.241-.5894.2684-.411.823-.5289 1.2343-.2597.1051.073.187.1514.2568.2597.1256.189.1976.369.242.5894.0805.4269.0893.8016.0268 1.2316-.0349.211-.0857.3909-.1756.5867l1.314 1.433c.5698-.4364.9296-.968 1.1205-1.6588.1242-.4491.1609-.8502.1182-1.3141-.0678-.7585-.3673-1.3833-.9169-1.9092-.5122-.4932-1.081-.773-1.7805-.8827m-10.723 5.7485a27.364 27.364 0 01-.0628-1.4358 153.4236 153.4236 0 01-.0282-1.887c-.0018-.3599-.0402-.6611-.1312-1.0072-.1165-.4558-.3842-.8019-.7952-1.029-.2452-.1394-.4703-.223-.7483-.2826-.8822-.1891-1.6608-.2054-2.5463-.0501-.2494.042-.4583.1044-.6936.199-.54.2229-.9133.631-1.0844 1.1895-.067.2152-.0878.4096-.061.63a.393.393 0 00.0335.1137l2.0563.0487c-.0056-.1285.012-.2392.0565-.3624.0663-.1894.1996-.3234.3887-.3908.2745-.0988.5422-.1055.8202-.0134.1817.0593.3137.1933.3736.3785.0339.1164.0173.23-.0546.3256a.4612.4612 0 01-.2332.1852c-.0621.022-.1147.042-.1778.0568a7.7569 7.7569 0 01-.822.18c-.231.038-.4251.0743-.6551.1188a7.3397 7.3397 0 00-.8703.2272c-.2787.0892-.497.2152-.7095.4138-.2769.254-.4346.5542-.49.926-.0331.2502-.025.4678.0286.714.1443.6393.5885 1.1071 1.2146 1.2895.696.2032 1.3498.1707 2.0197-.1013.3295-.134.5782-.3132.8026-.5866l-.1447-1.0492c-.1055.158-.2332.2692-.4064.3475a1.4884 1.4884 0 01-.4886.1256c-.146.0162-.2766.007-.4198-.0335-.1171-.0328-.2067-.0854-.2893-.176-.0691-.0756-.1132-.1539-.132-.254-.0317-.157.0163-.3041.1366-.4057a.7514.7514 0 01.2597-.15 7.5444 7.5444 0 01.6847-.2233c.2967-.0878.5415-.1757.8213-.3055.0293.2258.0271.418-.006.6396-.0208.1637-.0685.2963-.1602.4353l.1446 1.0492c.0445.1513.0844.2755.1366.4219.0296.0836.068.1432.1256.2092h2.2634c-.0956-.15-.1447-.3027-.1563-.4812m-13.7203 0c-.0353-.5027-.0536-.93-.0656-1.4358-.0095-.665-.0197-1.2235-.025-1.887-.0029-.3599-.0399-.6611-.1306-1.0072-.1167-.4558-.3852-.8019-.7916-1.029-.2494-.1394-.4787-.223-.7542-.2826-.8795-.1891-1.6588-.2054-2.546-.0501-.2502.042-.4569.1044-.6908.199-.5415.2229-.9137.631-1.0883 1.1895-.0667.2152-.0836.4096-.0593.63.0053.0407.0145.077.0343.1137l2.0563.0487c-.0053-.1285.0134-.2392.0554-.3624.0691-.1894.1986-.3234.387-.3908.2783-.0988.5418-.1055.8223-.0134.1831.0593.3136.1933.3725.3785.034.1164.0184.23-.0508.3256-.0635.0896-.1386.1489-.236.1852-.061.022-.114.042-.176.0568a7.8018 7.8018 0 01-.8223.18 23.4267 23.4267 0 00-.6569.1188 7.506 7.506 0 00-.8728.2272c-.2758.0892-.4928.2152-.7055.4138-.2787.254-.436.5542-.49.926-.0353.2502-.0272.4678.0296.714.1425.6393.5845 1.1071 1.2139 1.2895.695.2032 1.348.1707 2.02-.1013.3284-.134.5779-.3132.8008-.5866l-.144-1.0492c-.1033.158-.2331.2692-.4074.3475a1.4801 1.4801 0 01-.4875.1256c-.1468.0162-.2755.007-.4191-.0335-.116-.0328-.2067-.0854-.2893-.176-.0709-.0756-.1129-.1539-.1351-.254-.031-.157.0208-.3041.1404-.4057a.7253.7253 0 01.2579-.15c.2378-.0907.4434-.1556.6861-.2233.2964-.0878.5405-.1757.8206-.3055.0268.2258.0254.418-.005.6396-.0229.1637-.0716.2963-.1615.4353l.144 1.0492c.0461.1513.086.2755.1379.4219.03.0836.0649.1432.1245.2092h2.2659a1.0112 1.0112 0 01-.1588-.4812m-23.8121-4.0167h.5637v1.8592h.0134c.1725-.2801.4787-.4922 1.0104-.4922.888 0 1.3204.7275 1.3204 1.5466 0 .8396-.3894 1.6545-1.3127 1.6545-.546 0-.8921-.2769-1.0438-.503h-.012v.4318h-.5394zm1.4697 1.8225c-.6121 0-.906.5828-.906 1.1521 0 .5095.265 1.1367.8989 1.1367.6057 0 .8587-.676.8456-1.1557.013-.5503-.2282-1.1331-.8385-1.1331m1.9649 3.5002c.073.0243.1668.0501.2631.0501.5041 0 .6717-.6974.6717-.757 0-.065-.0716-.222-.1083-.3246l-1.0361-2.8512h.616l.8216 2.528h.0123l.8407-2.528h.5673l-1.1261 3.1232c-.2089.5867-.4325 1.264-1.1748 1.264-.1806 0-.2804-.0258-.3841-.042l.0367-.4625" fill="#231f20"/></svg>