<svg xmlns="http://www.w3.org/2000/svg" height="800" width="1200" viewBox="-67.085895 -24.216175 581.41109 145.29705"><path d="M161.403 2.6796h24.5613v31.0782h24.2274V2.6796h24.5613v89.0562h-24.5612v-33.417h-24.2275v33.417H161.403V2.6796m79.7 0h24.5613v66.0821h27.0675v22.9741H241.103V2.6796m56.6413 0h49.6237v20.4679h-25.0625v13.7011h25.0625V57.317h-25.0625v13.951h25.0625v20.4678h-49.6238V2.6796m55.1376 0h24.5612c4.5388.1011 9.0587.4239 13.5337 1.2549 14.035 2.9937 25.3975 18.126 21.7213 32.5934-1.67 8.4803-7.8525 14.9657-14.7037 19.9545 8.5362 11.6602 16.88 23.46 25.23 35.2534h-26.3988c-6.675-8.5874-13.0325-17.4907-19.3825-26.248v26.248h-24.5612zM377.443 23.268v17.376c4.0338-.1811 8.69.6968 11.6962-2.4531 3.6763-2.8276 3.6763-9.146.1675-12.1391-3.1724-2.9985-7.6974-2.5523-11.8637-2.7838M157.8955 46.3725C157.8955 20.7636 137.308 0 111.923 0 86.5367 0 65.9493 20.7636 65.9493 46.3725c0 25.6089 20.5875 46.3726 45.9737 46.3726 25.385 0 45.9725-20.7637 45.9725-46.3726zM111.923 23.5761c11.3637 0 20.58 10.2072 20.58 22.7959 0 12.5894-9.2163 22.7969-20.58 22.7969-11.365 0-20.5813-10.2075-20.5813-22.7969 0-12.5887 9.2163-22.7959 20.5813-22.7959"/><path d="M79.0305 2.7163c-11.58 14.183-23.3825 28.189-34.92 42.4028l40.1 46.6167h-32.415l-27.235-31.9033v31.9033H0V2.6796h24.5605v26.2876L47.838 2.7162h31.1925m359.1738 76.0777c2.495 0 4.7537 1.0117 6.3887 2.6465 1.635 1.6344 2.6463 3.894 2.6463 6.3887 0 2.4951-1.0113 4.7544-2.6463 6.3892-1.635 1.6342-3.8937 2.6464-6.3887 2.6464s-4.755-1.0122-6.3888-2.6464c-1.635-1.6348-2.6475-3.894-2.6475-6.3892 0-2.4946 1.0125-4.7543 2.6475-6.3887 1.6338-1.6348 3.8937-2.6465 6.3887-2.6465zm5.1362 3.8995c-1.315-1.3145-3.1313-2.128-5.1363-2.128-2.0062 0-3.8225.8135-5.1362 2.128-1.315 1.314-2.1275 3.1303-2.1275 5.1357 0 2.0059.8125 3.8218 2.1275 5.1362 1.3137 1.314 3.13 2.1275 5.1363 2.1275 2.005 0 3.8212-.8135 5.1362-2.1275 1.3137-1.3144 2.1275-3.1304 2.1275-5.1362 0-2.0054-.8137-3.8217-2.1275-5.1357"/><path d="M441.9918 92.4116h-1.7463l-1.4237-3.7676h-2.3225v3.7676h-1.6525V83.247h3.975c1.105 0 1.9187.2496 2.4375.7496.52.4975.7787 1.1435.7787 1.936 0 1.1782-.55 1.9873-1.6525 2.4297zm-5.4925-5.0898h2.055c.5937 0 1.0375-.124 1.33-.376.29-.2495.435-.5957.435-1.0337 0-.4028-.1425-.7285-.4288-.976-.2862-.2496-.6875-.3736-1.2025-.3736h-2.1887v2.7593"/></svg>